<?xml version="1.0" encoding="UTF-8"?><svg id="Layer_1" xmlns="http://www.w3.org/2000/svg" xmlns:xlink="http://www.w3.org/1999/xlink" viewBox="0 0 50 50"><defs><style>.cls-1{fill:url(#linear-gradient-3);}.cls-2{fill:url(#linear-gradient-2);}.cls-3{fill:url(#linear-gradient);}</style><linearGradient id="linear-gradient" x1="-2161.83" y1="269.64" x2="-2152.94" y2="269.71" gradientTransform="translate(12040.87 1526.97) scale(5.57 -5.57)" gradientUnits="userSpaceOnUse"><stop offset="0" stop-color="#ffb900"/><stop offset=".34" stop-color="#f38000"/><stop offset=".57" stop-color="#f83c72"/><stop offset=".78" stop-color="#fc1cbe"/><stop offset=".93" stop-color="#fe08ed"/><stop offset="1" stop-color="#f0f"/></linearGradient><linearGradient id="linear-gradient-2" x1="-2159.33" y1="266.73" x2="-2150.26" y2="271.75" gradientTransform="translate(12040.87 1526.97) scale(5.57 -5.57)" gradientUnits="userSpaceOnUse"><stop offset="0" stop-color="#ee0a3f"/><stop offset="1" stop-color="#ee0a3f" stop-opacity="0"/></linearGradient><linearGradient id="linear-gradient-3" x1="-3049.33" y1="267.82" x2="-3044.9" y2="271.39" gradientTransform="translate(-16783.67 1508.91) rotate(-180) scale(5.51)" gradientUnits="userSpaceOnUse"><stop offset="0" stop-color="#ed6600"/><stop offset="1" stop-color="#f98200"/></linearGradient></defs><g id="g942"><g id="g71"><path id="path69" class="cls-3" d="M25.01,45.3c-.35,0-.7-.09-1.01-.26-2.64-1.53-22.23-13.81-22.97-14.19-.56-.26-.95-.8-1.01-1.42V12.2c-.01-.64.3-1.25.84-1.6l.14-.08c1.89-1.18,8.24-5.05,9.24-5.6.23-.14.49-.21.76-.21.25,0,.5.07.72.18,0,0,8.88,5.79,10.23,6.3.95.44,1.99.66,3.04.64,1.19.02,2.36-.26,3.4-.83,1.33-.7,9.81-6.08,9.9-6.08.21-.13.46-.2.71-.19.27,0,.53.07.76.21,1.16.64,9.02,5.45,9.35,5.66.55.33.89.93.88,1.58v17.23c-.06.62-.45,1.16-1.01,1.42-.74.41-20.27,12.69-22.96,14.19-.31.18-.66.28-1.01.28"/></g><g id="g79"><path id="path77" class="cls-2" d="M24.91,45.3h.1c.36,0,.7-.09,1.01-.26,2.64-1.53,22.22-13.81,22.96-14.19.57-.26.95-.8,1.01-1.42V12.2c0-.29-.06-.58-.19-.84l-24.9,13.67v20.27"/></g><g id="g970"><path id="path968" class="cls-1" d="M24.82,45.05h-.1c-.35,0-.7-.09-1-.26-2.62-1.51-21.99-13.66-22.72-14.04C.44,30.5.06,29.97,0,29.35V12.31c0-.29.06-.57.19-.83l24.63,13.52v20.05"/></g></g></svg>