<?xml version="1.0" encoding="UTF-8"?><svg id="Layer_1" xmlns="http://www.w3.org/2000/svg" viewBox="0 0 300 300"><defs><style>.cls-1{fill:#1ec687;}</style></defs><path class="cls-1" d="M252.25,165.58l.11,2.89,6.37,111.14-217.45-.02,11.15-195.58,18.54-.59c.58-6.67.42-13.1.12-20.13l-28.25-.03c-5.04,0-9.7,3.89-10.02,9.22l-5.59,92.99-.11,2.99-6.68,119.72c-.4,7.2,4.41,11.84,11.58,11.83l116.4-.11c.92,0,.86-4.51,2.05-2.34.17.31.64,2.38,1.03,2.38h117.56c6.62,0,10.88-5.27,10.52-11.74l-6.73-119.76-.1-2.95-5.4-91.99c-.42-7.23-5.97-10.45-12.81-10.44l-46.26.06C210.11,29.74,185.75,2.17,153.62.12c-32.72-2.09-60.82,23.48-61.85,56.82-.28,9.14-.4,17.5.03,26.43,6.79.35,13.04.34,19.88,0,.45-8.04.24-15.79.25-24.01.02-22.51,17.75-39.63,39.34-38.95s38.85,19.87,36.52,42.72l-55.37.15c-.28,7.09-.48,13.39.15,20.24l114.94.1,4.74,81.96ZM111.88,140.38l-.07-31.1c-6.91-.42-13.25-.46-20.13.03l.05,31.09c6.86.38,13.15.45,20.15-.03ZM208.37,140.37l-.07-31.09c-6.9-.44-13.23-.46-20.12.02l.05,31.1c6.87.37,13.16.45,20.14-.03Z"/><path class="cls-1" d="M272.74,165.48l.1,2.95,6.73,119.76c.36,6.46-3.9,11.73-10.52,11.73h-117.56s-3.08-.03-3.08-.03l-116.4.11c-7.17,0-11.98-4.63-11.58-11.83l6.68-119.72.11-2.99,5.59-92.99c.32-5.33,4.98-9.22,10.02-9.22l28.25.03c.3,7.03.46,13.46-.12,20.13l-18.54.59-11.15,195.58,217.45.02-6.37-111.14-.11-2.89-4.74-81.96-114.94-.1c-.63-6.86-.43-13.16-.15-20.24l55.37-.15c2.33-22.84-14.64-42.03-36.52-42.72s-39.32,16.44-39.34,38.95c0,8.22.21,15.98-.25,24.01-6.84.33-13.09.34-19.88,0-.43-8.93-.32-17.28-.03-26.43C92.81,23.6,120.9-1.97,153.62.12c32.13,2.05,56.49,29.62,54.65,62.99l46.26-.06c6.83,0,12.38,3.21,12.81,10.44l5.4,91.99Z"/><path class="cls-1" d="M111.88,140.38c-7,.48-13.29.41-20.15.03l-.05-31.09c6.88-.49,13.22-.45,20.13-.03l.07,31.1Z"/><path class="cls-1" d="M208.37,140.37c-6.98.49-13.27.4-20.14.03l-.05-31.1c6.89-.48,13.23-.45,20.12-.02l.07,31.09Z"/></svg>