<?xml version="1.0" encoding="UTF-8"?><svg id="Layer_1" xmlns="http://www.w3.org/2000/svg" viewBox="0 0 300 300"><defs><style>.cls-1{fill:#010101;}.cls-2{fill:#030203;}.cls-3{fill:#28f1eb;}.cls-4{fill:#f82d55;}.cls-5{fill:#fdfdfd;}</style></defs><path class="cls-1" d="M84.31,64.21l13.2.09.05,16.75c0,3.67,2.92,6.46,6.27,6.59s6.74-2.45,6.76-6.16l.05-17.19h78.84s-.04,16.36-.04,16.36c0,3.85,2.71,6.87,6.38,7s6.74-2.74,6.74-6.57l-.04-16.79,13.2-.1,16.47.32c12.02,2.4,23.79,11.48,25.09,24.65l17.18,174.16c1.82,18.4-9.18,34.1-27.48,36.22l-195.57-.05c-17.43-3.42-27.43-18.3-25.73-35.72l16.8-172.78c1.34-13.76,12.25-24.03,25.37-26.45,5.64-1.04,11.18.37,16.47-.32ZM180.75,162.24c11.46,7.86,23.87,11.95,37.39,11.94l-.02-26.78c-20.61-.13-37.18-16.58-37.35-37.31h-26.77s-.04,106.48-.04,106.48c.03,13.71-11.71,24.05-25.05,22.61-13.06-1.41-22.29-13.8-19.66-26.87,2.56-12.75,15.44-21.08,28.72-17.18l.08-27.3c-28.52-3.93-54.07,17.42-55.94,45.69-1.87,28.29,20.59,52.41,48.87,52.61,28.51.2,50.02-23.34,49.94-52.1l-.16-51.79Z"/><path class="cls-3" d="M67.84,64.53c-13.12,2.42-24.03,12.68-25.37,26.45l-16.8,172.78c-1.69,17.42,8.3,32.3,25.73,35.72-5.05.09-10.22.55-15.33-.6-14.69-3.3-25.17-17.14-23.74-32.26L28.85,92.72c1.38-14.58,11.78-26.21,26.52-28.29,1.44-.2,11.43-.51,12.47.1Z"/><path class="cls-4" d="M246.97,299.53c18.3-2.12,29.29-17.82,27.48-36.22l-17.18-174.16c-1.3-13.17-13.07-22.24-25.09-24.65l9.49-.26c15.31-.42,27.9,12.36,29.37,27.73l16.62,174.71c1.66,17.4-12.36,32.88-29.53,32.86h-11.16Z"/><path class="cls-2" d="M156.14.14c24.88,3.69,44.29,22.66,46.31,48.61.41,5.23.05,10.36.07,15.53l-13.07.05-.05-12.86c-.09-21.53-18.39-38.37-39.57-38.24-21.14.13-39.07,17.14-39.12,38.65l-.03,12.47-13.16-.06.06-13.2c.13-26.72,21.1-47.87,47.09-50.91,3.79-.44,7.67.02,11.47-.05Z"/><path class="cls-3" d="M144.67.2c-25.99,3.04-46.97,24.18-47.09,50.91l-.06,13.2-13.2-.09c.16-5.54-.41-11.04.15-16.67C86.95,22.61,106.39,2.97,131.26.26c4.58-.5,8.98-.11,13.41-.07Z"/><path class="cls-4" d="M215.71,64.18l-13.2.1c-.01-5.17.34-10.3-.07-15.53C200.43,22.8,181.02,3.83,156.14.14c4.16-.08,8.26-.33,12.55.13,25.56,2.76,46.88,23.44,46.97,49.16l.05,14.74Z"/><path class="cls-5" d="M180.75,162.24l.16,51.79c.09,28.76-21.43,52.3-49.94,52.1-28.28-.2-50.74-24.33-48.87-52.61,1.87-28.27,27.42-49.62,55.94-45.69l-.08,27.3c-13.27-3.9-26.16,4.43-28.72,17.18-2.62,13.06,6.6,25.45,19.66,26.87,13.34,1.44,25.08-8.9,25.05-22.61l.04-106.49h26.77c.17,20.73,16.74,37.19,37.35,37.31l.02,26.78c-13.51,0-25.92-4.08-37.39-11.94Z"/><path class="cls-5" d="M202.51,64.28l.04,16.79c0,3.84-3.15,6.69-6.74,6.57s-6.39-3.14-6.38-7l.04-16.35h-78.84s-.05,17.18-.05,17.18c-.01,3.71-3.31,6.3-6.76,6.16s-6.26-2.92-6.27-6.59l-.05-16.75,13.16.06.03-12.47c.05-21.51,17.98-38.52,39.12-38.65,21.18-.13,39.48,16.71,39.57,38.24l.05,12.86,13.07-.05Z"/></svg>