<svg xmlns="http://www.w3.org/2000/svg" xmlns:xlink="http://www.w3.org/1999/xlink" zoomAndPan="magnify" viewBox="214.5 215 1070 1070" preserveAspectRatio="xMidYMid meet" version="1.0"><defs><clipPath id="a16a1311e3"><path d="M 361.347656 255 L 1138.347656 255 L 1138.347656 1246 L 361.347656 1246 Z M 361.347656 255 " clip-rule="nonzero"/></clipPath></defs><g clip-path="url(#a16a1311e3)"><path fill="#f47527" d="M 1087.515625 497.90625 C 1086.460938 483.132812 1074.171875 471.671875 1059.359375 471.671875 L 950.535156 471.671875 L 950.535156 455.597656 C 950.535156 344.988281 860.535156 255.003906 749.921875 255.003906 C 639.3125 255.003906 549.328125 344.988281 549.328125 455.597656 L 549.328125 471.671875 L 440.488281 471.671875 C 425.675781 471.671875 413.386719 483.113281 412.332031 497.90625 L 397.519531 706.632812 C 396.410156 722.179688 408.117188 735.691406 423.679688 736.800781 C 439.058594 738.0625 452.757812 726.222656 453.851562 710.640625 L 466.800781 528.152344 L 1033.066406 528.152344 L 1079.964844 1189.070312 L 419.878906 1189.070312 L 435.707031 966.003906 L 614.054688 966.003906 C 621.527344 966.003906 628.714844 963.03125 634.023438 957.742188 L 805.425781 786.339844 L 805.425781 885.695312 C 805.425781 901.277344 818.074219 913.925781 833.65625 913.925781 C 849.242188 913.925781 861.886719 901.277344 861.886719 885.695312 L 861.886719 718.261719 C 861.886719 702.679688 849.242188 690.03125 833.65625 690.03125 L 666.226562 690.03125 C 650.640625 690.03125 637.996094 702.679688 637.996094 718.261719 C 637.996094 733.847656 650.640625 746.496094 666.226562 746.496094 L 765.429688 746.496094 L 602.367188 909.558594 L 409.472656 909.558594 C 405.105469 909.558594 400.679688 910.632812 396.765625 912.570312 C 387.84375 917.03125 381.9375 925.878906 381.238281 935.816406 L 361.402344 1215.304688 C 360.855469 1223.117188 363.566406 1230.8125 368.894531 1236.554688 C 374.238281 1242.292969 381.730469 1245.550781 389.558594 1245.550781 L 1110.25 1245.550781 C 1118.078125 1245.550781 1125.550781 1242.292969 1130.914062 1236.554688 C 1136.242188 1230.8125 1138.96875 1223.117188 1138.40625 1215.304688 Z M 605.792969 455.597656 C 605.792969 376.136719 670.460938 311.46875 749.921875 311.46875 C 829.386719 311.46875 894.054688 376.136719 894.054688 455.597656 L 894.054688 471.671875 L 605.792969 471.671875 Z M 605.792969 455.597656 " fill-opacity="1" fill-rule="nonzero"/></g></svg>